<?xml version="1.0" encoding="UTF-8"?>
<svg width="600px" height="600px" viewBox="0 0 600 600" version="1.1" xmlns="http://www.w3.org/2000/svg" xmlns:xlink="http://www.w3.org/1999/xlink">
    <title>p (2)</title>
    <defs>
        <rect id="path-1" x="0" y="0" width="78.6666667" height="273.333333"></rect>
        <rect id="path-3" x="0" y="0" width="117.333333" height="272"></rect>
        <rect id="path-5" x="0" y="0" width="78.6666667" height="272"></rect>
        <polygon id="path-7" points="0 -2.84217094e-14 139 -2.84217094e-14 139 94.1093747 0 94.1093747"></polygon>
        <polygon id="path-9" points="0 2.84217094e-14 19.5364587 2.84217094e-14 19.5364587 19.5364587 0 19.5364587"></polygon>
        <path d="M9.76562533,0 C4.375,0 0,4.369792 0,9.76562533 C0,15.1614587 4.375,19.5364587 9.76562533,19.5364587 C15.1614587,19.5364587 19.5364587,15.1614587 19.5364587,9.76562533 C19.5364587,4.369792 15.1614587,0 9.76562533,0 Z" id="path-11"></path>
        <rect id="path-13" x="0" y="0" width="20" height="20"></rect>
        <polygon id="path-15" points="3.33066907e-16 0 19.5364587 0 19.5364587 19.5364583 3.33066907e-16 19.5364583"></polygon>
        <path d="M9.76562533,0 C4.375,0 3.33066907e-16,4.36979167 3.33066907e-16,9.765625 C3.33066907e-16,15.1614583 4.375,19.5364583 9.76562533,19.5364583 C15.1614587,19.5364583 19.5364587,15.1614583 19.5364587,9.765625 C19.5364587,4.36979167 15.1614587,0 9.76562533,0 Z" id="path-17"></path>
        <polygon id="path-19" points="0 2.84217094e-14 19.5364587 2.84217094e-14 19.5364587 19.5364587 0 19.5364587"></polygon>
        <path d="M9.77083333,0 C4.375,0 0,4.369792 0,9.76562533 C0,15.1614587 4.375,19.5364587 9.77083333,19.5364587 C15.1666667,19.5364587 19.5364587,15.1614587 19.5364587,9.76562533 C19.5364587,4.369792 15.1666667,0 9.77083333,0 Z" id="path-21"></path>
        <rect id="path-23" x="0" y="0" width="21.3333333" height="20"></rect>
        <polygon id="path-25" points="0 0 19.5364587 0 19.5364587 19.5364583 0 19.5364583"></polygon>
        <path d="M9.77083333,0 C4.375,0 0,4.36979167 0,9.765625 C0,15.1614583 4.375,19.5364583 9.77083333,19.5364583 C15.1666667,19.5364583 19.5364587,15.1614583 19.5364587,9.765625 C19.5364587,4.36979167 15.1666667,0 9.77083333,0 Z" id="path-27"></path>
        <polygon id="path-29" points="0 2.84217094e-14 19.5364573 2.84217094e-14 19.5364573 19.5364587 0 19.5364587"></polygon>
        <path d="M9.765624,0 C4.36979067,0 0,4.369792 0,9.76562533 C0,15.1614587 4.36979067,19.5364587 9.765624,19.5364587 C15.1614573,19.5364587 19.5364573,15.1614587 19.5364573,9.76562533 C19.5364573,4.369792 15.1614573,0 9.765624,0 Z" id="path-31"></path>
        <rect id="path-33" x="0" y="0" width="20" height="20"></rect>
        <polygon id="path-35" points="0 0 19.5364573 0 19.5364573 19.5364583 0 19.5364583"></polygon>
        <path d="M9.765624,0 C4.36979067,0 0,4.36979167 0,9.765625 C0,15.1614583 4.36979067,19.5364583 9.765624,19.5364583 C15.1614573,19.5364583 19.5364573,15.1614583 19.5364573,9.765625 C19.5364573,4.36979167 15.1614573,0 9.765624,0 Z" id="path-37"></path>
        <polygon id="path-39" points="0 0 321.333333 0 321.333333 97.3333333 0 97.3333333"></polygon>
        <polygon id="path-41" points="7.177084 0 320.390625 39.1093747 313.208333 96.625 -1.42108547e-14 57.5208333"></polygon>
        <rect id="path-43" x="0" y="0" width="321.333333" height="97.3333333"></rect>
        <polygon id="path-45" points="0 0 320.640625 0 320.640625 96.9635413 0 96.9635413"></polygon>
        <polygon id="path-47" points="7.177084 0 320.390625 39.1093747 313.208333 96.625 -8.14163551e-16 57.5208333"></polygon>
        <rect id="path-49" x="0" y="0" width="298.666667" height="86.6666667"></rect>
        <polygon id="path-51" points="0 8.51170986e-16 34.6666667 8.51170986e-16 34.6666667 38.4010413 0 38.4010413"></polygon>
    </defs>
    <g id="Page-1" stroke="none" stroke-width="1" fill="none" fill-rule="evenodd">
        <g id="p-(2)" transform="translate(0, 0)">
            <rect id="Rectangle" fill="#5271FF" fill-rule="nonzero" x="0" y="0" width="600" height="599.999985" rx="150"></rect>
            <g id="Clipped" transform="translate(103.3333, 148.6667)">
                <mask id="mask-2" fill="white">
                    <use xlink:href="#path-1"></use>
                </mask>
                <g id="Rectangle"></g>
                <g id="Group" mask="url(#mask-2)">
                    <g transform="translate(2.8128, 80.9153)">
                        <g transform="translate(-0, 0)" fill="#FFF9F9" fill-rule="nonzero" id="Shape">
                            <g>
                                <path d="M0,0 L72.2239587,0 L72.2239587,143.093751 L0,143.093751 L0,0 Z M16.875,16.875 L16.875,126.218751 L55.3489587,126.218751 L55.3489587,16.875 L16.875,16.875 Z"></path>
                            </g>
                        </g>
                        <g transform="translate(8.4375, 8.4479)" fill="#171616" fill-rule="nonzero" id="Path">
                            <g>
                                <polygon points="0 0 55.3541667 0 55.3541667 126.208333 0 126.208333"></polygon>
                            </g>
                        </g>
                    </g>
                </g>
            </g>
            <g id="Clipped" transform="translate(168.6667, 154)">
                <mask id="mask-4" fill="white">
                    <use xlink:href="#path-3"></use>
                </mask>
                <g id="Rectangle"></g>
                <g id="Group" mask="url(#mask-4)">
                    <g transform="translate(2.4024, 48.6101)">
                        <g transform="translate(-0, 0)" fill="#FFF9F9" fill-rule="nonzero" id="Shape">
                            <g>
                                <path d="M67.609376,174.593751 C54.7812507,174.593751 43.3281253,172.182292 33.25,167.354168 C22.7812507,162.338543 14.5937507,154.812501 8.69791733,144.781251 C2.90104267,134.911459 -1.18423789e-15,122.765625 -1.18423789e-15,108.333333 L-1.18423789e-15,0 L72.2187507,0 L72.2187507,39.9375013 L63.7812507,39.9375013 L63.7812507,31.5 L110.692709,31.5 L110.692709,100.572917 L63.7812507,100.572917 L63.7812507,92.1354173 L72.2187507,92.1354173 L72.2187507,110.807292 C72.2187507,109.453125 71.6406253,108.197917 70.4791667,107.036459 C69.3229173,105.875 68.0625,105.296876 66.7083333,105.296876 L110.692709,105.296876 L110.692709,174.593751 L67.609376,174.593751 Z M67.609376,157.718751 L102.255208,157.718751 L102.255208,166.156251 L93.8177093,166.156251 L93.8177093,113.734376 L102.255208,113.734376 L102.255208,122.171876 L66.7083333,122.171876 C63.4010427,122.171876 60.682292,121.104168 58.5468747,118.968751 C56.4114587,116.833333 55.3437507,114.114584 55.3437507,110.807292 L55.3437507,83.6979173 L102.255208,83.6979173 L102.255208,92.1354173 L93.8177093,92.1354173 L93.8177093,39.9375013 L102.255208,39.9375013 L102.255208,48.375 L55.3437507,48.375 L55.3437507,8.43750133 L63.7812507,8.43750133 L63.7812507,16.875 L8.4375,16.875 L8.4375,8.43750133 L16.875,8.43750133 L16.875,108.333333 C16.875,119.703125 19,129 23.25,136.234376 C27.4010427,143.302084 33.1666667,148.604168 40.5416667,152.135417 C48.3125,155.859376 57.3385413,157.718751 67.609376,157.718751 Z"></path>
                            </g>
                        </g>
                        <g transform="translate(8.4323, 8.4479)">
                            <g transform="translate(-0, 0)" fill="#171616" fill-rule="nonzero" id="Path">
                                <g>
                                    <path d="M59.1666667,157.708333 C47.625,157.708333 37.3854173,155.572917 28.4583333,151.291667 C19.5416667,147.015625 12.567708,140.604167 7.54166667,132.0625 C2.51041733,123.510416 0,112.786459 0,99.8958333 L0,0 L55.3541667,0 L55.3541667,31.5 L93.8125,31.5 L93.8125,83.6875 L55.3541667,83.6875 L55.3541667,102.354167 C55.3541667,104.3125 56.322916,105.291667 58.2708333,105.291667 L93.8125,105.291667 L93.8125,157.708333 L59.1666667,157.708333 Z"></path>
                                </g>
                            </g>
                        </g>
                    </g>
                </g>
            </g>
            <g id="Clipped" transform="translate(271.3333, 154)">
                <mask id="mask-6" fill="white">
                    <use xlink:href="#path-5"></use>
                </mask>
                <g id="Rectangle"></g>
                <g id="Group" mask="url(#mask-6)">
                    <g transform="translate(2.9434, 48.6101)">
                        <g fill="#FFF9F9" fill-rule="nonzero" id="Shape">
                            <g>
                                <path d="M0,0 L72.2239587,0 L72.2239587,174.593751 L0,174.593751 L0,0 Z M16.875,16.875 L16.875,157.718751 L55.3489587,157.718751 L55.3489587,16.875 L16.875,16.875 Z"></path>
                            </g>
                        </g>
                        <g transform="translate(8.4375, 8.4479)" fill="#171616" fill-rule="nonzero" id="Path">
                            <g>
                                <polygon points="0 0 55.3541667 0 55.3541667 157.708333 0 157.708333"></polygon>
                            </g>
                        </g>
                    </g>
                </g>
            </g>
            <g id="Clipped" transform="translate(349.2552, 255.8906)">
                <mask id="mask-8" fill="white">
                    <use xlink:href="#path-7"></use>
                </mask>
                <g id="Path"></g>
                <path d="M139.0625,63.828124 C139.0625,79.8333333 126.083333,92.7968747 110.088541,92.7968747 L28.9635413,92.7968747 C12.9687507,92.7968747 0,79.8333333 0,63.828124 L0,29.0625 C0,13.067708 12.9687507,0.0989586667 28.9635413,0.0989586667 L110.083333,0.0989586667 C126.083333,0.0989586667 139.052084,13.067708 139.052084,29.0625 L139.052084,63.828124 L139.0625,63.828124 Z" id="Path" fill="#169B78" fill-rule="nonzero" mask="url(#mask-8)"></path>
            </g>
            <polygon id="Path" fill="#169B78" fill-rule="nonzero" points="389.817708 344.828124 389.817708 380.557291 426.020833 344.343748"></polygon>
            <g id="Clipped" transform="translate(378.2135, 295.3385)">
                <mask id="mask-10" fill="white">
                    <use xlink:href="#path-9"></use>
                </mask>
                <g id="Path"></g>
                <g mask="url(#mask-10)">
                    <g transform="translate(0, 0)">
                        <mask id="mask-12" fill="white">
                            <use xlink:href="#path-11"></use>
                        </mask>
                        <g id="Path" stroke="none" fill="none"></g>
                        <g id="Group" stroke="none" stroke-width="1" fill="none" fill-rule="evenodd" mask="url(#mask-12)">
                            <g transform="translate(-0.2135, -0.0052)" id="Clipped">
                                <mask id="mask-14" fill="white">
                                    <use xlink:href="#path-13"></use>
                                </mask>
                                <g id="Rectangle"></g>
                                <g mask="url(#mask-14)">
                                    <g transform="translate(0.2135, 0.0052)">
                                        <mask id="mask-16" fill="white">
                                            <use xlink:href="#path-15"></use>
                                        </mask>
                                        <g id="Path" stroke="none" fill="none"></g>
                                        <g id="Clipped" stroke="none" stroke-width="1" fill="none" fill-rule="evenodd" mask="url(#mask-16)">
                                            <mask id="mask-18" fill="white">
                                                <use xlink:href="#path-17"></use>
                                            </mask>
                                            <g id="Path"></g>
                                            <polygon id="Path" fill="#FFFFFF" fill-rule="nonzero" mask="url(#mask-18)" points="3.33066907e-16 0 19.5364587 0 19.5364587 19.5364583 3.33066907e-16 19.5364583"></polygon>
                                        </g>
                                    </g>
                                </g>
                            </g>
                        </g>
                    </g>
                </g>
            </g>
            <g id="Clipped" transform="translate(405.5781, 295.3385)">
                <mask id="mask-20" fill="white">
                    <use xlink:href="#path-19"></use>
                </mask>
                <g id="Path"></g>
                <g mask="url(#mask-20)">
                    <g transform="translate(0, 0)">
                        <mask id="mask-22" fill="white">
                            <use xlink:href="#path-21"></use>
                        </mask>
                        <g id="Path" stroke="none" fill="none"></g>
                        <g id="Group" stroke="none" stroke-width="1" fill="none" fill-rule="evenodd" mask="url(#mask-22)">
                            <g transform="translate(-0.9115, -0.0052)" id="Clipped">
                                <mask id="mask-24" fill="white">
                                    <use xlink:href="#path-23"></use>
                                </mask>
                                <g id="Rectangle"></g>
                                <g mask="url(#mask-24)">
                                    <g transform="translate(0.9115, 0.0052)">
                                        <mask id="mask-26" fill="white">
                                            <use xlink:href="#path-25"></use>
                                        </mask>
                                        <g id="Path" stroke="none" fill="none"></g>
                                        <g id="Clipped" stroke="none" stroke-width="1" fill="none" fill-rule="evenodd" mask="url(#mask-26)">
                                            <mask id="mask-28" fill="white">
                                                <use xlink:href="#path-27"></use>
                                            </mask>
                                            <g id="Path"></g>
                                            <polygon id="Path" fill="#FFFFFF" fill-rule="nonzero" mask="url(#mask-28)" points="0 0 19.5364587 0 19.5364587 19.5364583 0 19.5364583"></polygon>
                                        </g>
                                    </g>
                                </g>
                            </g>
                        </g>
                    </g>
                </g>
            </g>
            <g id="Clipped" transform="translate(432.9479, 295.3385)">
                <mask id="mask-30" fill="white">
                    <use xlink:href="#path-29"></use>
                </mask>
                <g id="Path"></g>
                <g mask="url(#mask-30)">
                    <g transform="translate(0, 0)">
                        <mask id="mask-32" fill="white">
                            <use xlink:href="#path-31"></use>
                        </mask>
                        <g id="Path" stroke="none" fill="none"></g>
                        <g id="Group" stroke="none" stroke-width="1" fill="none" fill-rule="evenodd" mask="url(#mask-32)">
                            <g transform="translate(-0.2813, -0.0052)" id="Clipped">
                                <mask id="mask-34" fill="white">
                                    <use xlink:href="#path-33"></use>
                                </mask>
                                <g id="Rectangle"></g>
                                <g mask="url(#mask-34)">
                                    <g transform="translate(0.2813, 0.0052)">
                                        <mask id="mask-36" fill="white">
                                            <use xlink:href="#path-35"></use>
                                        </mask>
                                        <g id="Path" stroke="none" fill="none"></g>
                                        <g id="Clipped" stroke="none" stroke-width="1" fill="none" fill-rule="evenodd" mask="url(#mask-36)">
                                            <mask id="mask-38" fill="white">
                                                <use xlink:href="#path-37"></use>
                                            </mask>
                                            <g id="Path"></g>
                                            <polygon id="Path" fill="#FFFFFF" fill-rule="nonzero" mask="url(#mask-38)" points="0 0 19.5364573 0 19.5364573 19.5364583 0 19.5364583"></polygon>
                                        </g>
                                    </g>
                                </g>
                            </g>
                        </g>
                    </g>
                </g>
            </g>
            <g id="Clipped" transform="translate(136.6667, 351.3333)">
                <mask id="mask-40" fill="white">
                    <use xlink:href="#path-39"></use>
                </mask>
                <g id="Path"></g>
                <g mask="url(#mask-40)">
                    <g transform="translate(0.526, 0.4167)">
                        <mask id="mask-42" fill="white">
                            <use xlink:href="#path-41"></use>
                        </mask>
                        <g id="Path" stroke="none" fill="none"></g>
                        <g id="Group" stroke="none" stroke-width="1" fill="none" fill-rule="evenodd" mask="url(#mask-42)">
                            <g transform="translate(-0.526, -0.4167)" id="Clipped">
                                <mask id="mask-44" fill="white">
                                    <use xlink:href="#path-43"></use>
                                </mask>
                                <g id="Rectangle"></g>
                                <g mask="url(#mask-44)">
                                    <g transform="translate(0.375, 0.1042)">
                                        <mask id="mask-46" fill="white">
                                            <use xlink:href="#path-45"></use>
                                        </mask>
                                        <g id="Path" stroke="none" fill="none"></g>
                                        <g id="Clipped" stroke="none" stroke-width="1" fill="none" fill-rule="evenodd" mask="url(#mask-46)">
                                            <g transform="translate(0.151, 0.3125)">
                                                <mask id="mask-48" fill="white">
                                                    <use xlink:href="#path-47"></use>
                                                </mask>
                                                <g id="Path" stroke="none" fill="none"></g>
                                                <polygon id="Path" stroke="none" fill="#FFF9F9" fill-rule="nonzero" mask="url(#mask-48)" points="7.177084 0 320.380209 39.1041667 313.197917 96.625 -8.14163551e-16 57.5208333"></polygon>
                                            </g>
                                        </g>
                                    </g>
                                </g>
                            </g>
                        </g>
                    </g>
                </g>
            </g>
            <g id="Clipped" transform="translate(150, 363.3333)">
                <mask id="mask-50" fill="white">
                    <use xlink:href="#path-49"></use>
                </mask>
                <g id="Rectangle"></g>
                <g id="Group" mask="url(#mask-50)">
                    <g transform="translate(2.6667, 0.2656)">
                        <g id="Clipped">
                            <mask id="mask-52" fill="white">
                                <use xlink:href="#path-51"></use>
                            </mask>
                            <g id="Path"></g>
                            <g id="Group" mask="url(#mask-52)">
                                <g transform="translate(3.3035, 2.7893)" fill="#5271FF" fill-rule="nonzero" id="Path">
                                    <path d="M17.8734756,26.9100379 C18.9984756,27.0506632 20.1130596,27.0142045 21.2276423,26.8058712 C22.3526423,26.5871205 23.1859756,26.3475379 23.7276423,26.0975379 L24.5401423,25.6600379 L26.9359756,32.4308712 C26.8109756,32.4829552 26.6443089,32.5662885 26.4359756,32.6808712 C26.2276423,32.8058712 25.7588916,32.9985792 25.0401423,33.2642045 C24.3318089,33.5402459 23.5713929,33.7642045 22.7693089,33.9308712 C21.9776423,34.0975379 20.9411836,34.2069125 19.6651423,34.2642045 C18.3838916,34.3319125 17.0870169,34.2850379 15.7693089,34.1183712 C12.7276423,33.7277459 9.93597561,32.6183712 7.39430894,30.7850379 C4.85264228,28.9412885 2.90472628,26.5975379 1.56097561,23.7642045 C0.227642276,20.9204539 -0.25152439,17.9725379 0.12347561,14.9308712 C0.415142276,12.6131632 1.18597561,10.4621205 2.43597561,8.47253788 C3.69639294,6.48816321 5.23285028,4.84232988 7.04014228,3.53503788 C8.85785028,2.23295521 10.9047263,1.26420455 13.1859756,0.639204545 C15.4620169,0.0142045455 17.7484756,-0.152462121 20.0401423,0.139204545 C22.1651423,0.404829879 24.0870169,0.899621879 25.8109756,1.61837121 C27.5297263,2.34232988 28.7328503,3.00378721 29.4151423,3.59753788 L30.4359756,4.47253788 L26.4568089,10.4517045 C26.2901423,10.2746219 26.0297263,10.0454539 25.6859756,9.76420455 C25.3526423,9.48816321 24.6495169,9.09753788 23.5818089,8.59753788 C22.5088916,8.08712055 21.4151423,7.75899655 20.2901423,7.61837121 C18.4828503,7.38399655 16.8213929,7.46732988 15.3109756,7.86837121 C13.7953503,8.27462188 12.5609756,8.90482988 11.6026423,9.76420455 C10.6547263,10.6131632 9.89951694,11.5558712 9.33180894,12.5975379 C8.75889161,13.6392045 8.40472628,14.7329552 8.26930894,15.8683712 C7.94639294,18.3683712 8.59222494,20.7225379 10.2068089,22.9308712 C11.8318089,25.1392045 14.3838916,26.4673299 17.8734756,26.9100379 Z"></path>
                                </g>
                            </g>
                        </g>
                        <g id="Shape" transform="translate(35.5785, 6.6747)" fill="#5271FF" fill-rule="nonzero">
                            <g>
                                <path d="M0.171039399,15.0156133 C0.764790066,10.2812386 2.88458073,6.4739466 6.52520607,3.5989466 C10.1606221,0.723946603 14.2595807,-0.42709473 18.8168727,0.14061327 C23.4106221,0.723946603 27.1085394,2.8489466 29.9002061,6.51561327 C32.6918727,10.1822799 33.7856221,14.4010306 33.1918727,19.1614466 C32.5929141,23.9531133 30.5095807,27.7968626 26.9418727,30.6822799 C23.3845807,33.5676973 19.2543727,34.7135293 14.5460394,34.1197799 C9.75437273,33.5208213 6.00437273,31.4010299 3.2960394,27.7656133 C0.598123399,24.1145719 -0.443543268,19.8645719 0.171039399,15.0156133 Z M8.25437273,16.0364466 C8.03041407,17.7604053 8.09291407,19.3697799 8.44187273,20.8697799 C8.8012474,22.3593639 9.57728873,23.6718626 10.7752061,24.8072799 C11.9835394,25.9479053 13.5460394,26.6354053 15.4627061,26.8697799 C18.2543727,27.2187386 20.4731234,26.5312386 22.1293727,24.8072799 C23.7804141,23.0885293 24.7804141,20.8697799 25.1293727,18.1614466 C25.4627061,15.4947799 25.0252061,13.1145719 23.8168727,11.0156133 C22.6189554,8.9062386 20.6554141,7.67707194 17.9210394,7.32811327 C15.2231234,6.99477994 13.0252061,7.69790527 11.3168727,9.43227994 C9.6085394,11.1718626 8.58770607,13.3697799 8.25437273,16.0364466 Z"></path>
                            </g>
                        </g>
                        <g id="Path" transform="translate(70.6445, 10.3412)" fill="#5271FF" fill-rule="nonzero">
                            <g>
                                <polygon points="28.8541667 36.0416667 29.7291667 16.3958333 29.5416667 16.375 20.3958333 34.7708333 15.9583333 34.2083333 11.6458333 14.125 11.4375 14.1041667 7.45833333 33.3541667 0 32.4166667 7.04166667 0 15 0.979166667 19.9166667 20.8125 29.5208333 2.8125 37.4791667 3.8125 36.3125 36.9791667"></polygon>
                            </g>
                        </g>
                        <g id="Path" transform="translate(110.6141, 15.357)" fill="#5271FF" fill-rule="nonzero">
                            <g>
                                <polygon points="28.8541667 36.0416667 29.7291667 16.3958333 29.5416667 16.375 20.3958333 34.7708333 15.9583333 34.2083333 11.6458333 14.125 11.4375 14.1041667 7.45833333 33.3541667 0 32.4166667 7.04166667 0 15 0.979166667 19.9166667 20.8125 29.5208333 2.8125 37.4791667 3.8125 36.3125 36.9791667"></polygon>
                            </g>
                        </g>
                        <g id="Path" transform="translate(153.2202, 20.1644)" fill="#5271FF" fill-rule="nonzero">
                            <g>
                                <path d="M28.4260057,3.20833333 L25.7801724,24.3541667 C25.2801724,28.385416 23.8062137,31.2916667 21.3635057,33.0833333 C18.9155897,34.885416 15.6030884,35.5260413 11.4260057,35 C7.24371375,34.4687493 4.19683908,33.0416667 2.28017241,30.7083333 C0.363505747,28.364584 -0.344827586,25.1770827 0.155172414,21.1458333 L2.80100575,0 L10.2801724,0.9375 L7.90517241,19.8958333 C7.57183908,22.5520827 7.75933908,24.4479173 8.46767241,25.5833333 C9.17600575,26.7239587 10.4676724,27.4114587 12.3426724,27.6458333 C14.2280884,27.885416 15.6551724,27.5364587 16.6135057,26.6041667 C17.5718391,25.6770827 18.2176724,23.885416 18.5510057,21.2291667 L20.9260057,2.27083333 L28.4260057,3.20833333 Z"></path>
                            </g>
                        </g>
                        <g id="Path" transform="translate(184.2571, 24.2147)" fill="#5271FF" fill-rule="nonzero">
                            <g>
                                <polygon points="10.0416667 13.375 7.47916667 33.7291667 0 32.7916667 4.10416667 0 11.5833333 0.9375 22.0833333 22.9375 22.1458333 22.9375 24.6875 2.58333333 32.1875 3.52083333 28.0833333 36.3125 20.5833333 35.375 10.125 13.3958333"></polygon>
                            </g>
                        </g>
                        <g id="Path" transform="translate(219.4591, 28.6321)" fill="#5271FF" fill-rule="nonzero">
                            <g>
                                <polygon points="11.5833333 0.9375 7.47916667 33.7291667 0 32.7916667 4.10416667 0"></polygon>
                            </g>
                        </g>
                        <g id="Path" transform="translate(235.3103, 30.217)" fill="#5271FF" fill-rule="nonzero">
                            <g>
                                <polygon points="0 6.5625 0.8125 0 23.875 2.89583333 23.0625 9.45833333 15.2708333 8.47916667 11.9791667 34.7083333 4.5 33.7708333 7.79166667 7.54166667"></polygon>
                            </g>
                        </g>
                        <g id="Path" transform="translate(260.6661, 33.3003)" fill="#5271FF" fill-rule="nonzero">
                            <g>
                                <polygon points="0 0 9 1.125 14.5208333 12.4583333 22.6666667 2.83333333 31.6666667 3.95833333 17.3125 20.5416667 15.4583333 35.25 8 34.3125 9.85416667 19.6041667"></polygon>
                            </g>
                        </g>
                    </g>
                </g>
            </g>
        </g>
    </g>
</svg>