<svg xmlns="http://www.w3.org/2000/svg" width="128" height="84" viewBox="0 0 128 84" fill="none"><path d="M7.05705 33.5511H4.96901L5.73551 32.9722V38.2616L5.20689 37.5247L8.24645 38.2089V40.1036H0V38.2089L2.53737 37.4721L1.95589 38.2616V23.4724L2.61666 24.2882L0 23.604V21.7093L5.8148 21.5777H8.22001C9.68253 21.5777 10.8807 21.8321 11.8146 22.3408C12.7485 22.8321 13.4357 23.5075 13.8762 24.3671C14.3344 25.2267 14.5634 26.2004 14.5634 27.2881C14.5634 28.4635 14.2903 29.5337 13.7441 30.4986C13.2155 31.4459 12.3961 32.1915 11.286 32.7354C10.1935 33.2792 8.78387 33.5511 7.05705 33.5511ZM7.6121 24.2619H5.15403L5.73551 23.6829V31.4196L4.96901 30.8407H7.08349C8.26407 30.8407 9.16272 30.5249 9.77944 29.8933C10.3962 29.2617 10.7045 28.4197 10.7045 27.3671C10.7045 26.4022 10.4402 25.6478 9.91159 25.1039C9.4006 24.5425 8.6341 24.2619 7.6121 24.2619Z" fill="#151942"></path><path d="M15.8181 40.1036V38.2089L17.959 37.6037L17.5889 38.1563V28.0512L18.0118 28.6828L15.8181 28.0249V26.1302L20.4699 25.9197L20.9457 28.4197L20.4699 28.3144C21.2628 27.4899 22.047 26.8583 22.8223 26.4197C23.5976 25.9636 24.4257 25.7355 25.3068 25.7355C25.8706 25.7355 26.4697 25.8232 27.1041 25.9987L26.8662 30.867H24.7253L24.3288 28.0249L24.6724 28.7354C24.5667 28.7004 24.4522 28.674 24.3288 28.6565C24.2231 28.639 24.1174 28.6302 24.0117 28.6302C23.4654 28.6302 22.9192 28.7968 22.3729 29.1302C21.8443 29.4635 21.3862 29.8933 20.9985 30.4196L21.2893 29.4196V38.1563L20.8664 37.6037L23.483 38.2089V40.1036H15.8181Z" fill="#151942"></path><path d="M34.8516 25.7355C36.9309 25.7355 38.552 26.3495 39.7149 27.5776C40.8779 28.8056 41.4594 30.5512 41.4594 32.8143C41.4594 34.3932 41.1774 35.7528 40.6136 36.8932C40.0497 38.016 39.2392 38.8844 38.1819 39.4984C37.1247 40.1124 35.856 40.4194 34.3759 40.4194C32.2966 40.4194 30.6844 39.8054 29.539 38.5773C28.4113 37.3493 27.8474 35.6037 27.8474 33.3406C27.8474 31.7617 28.1206 30.4108 28.6668 29.2881C29.2307 28.1477 30.0324 27.2706 31.072 26.6565C32.1116 26.0425 33.3715 25.7355 34.8516 25.7355ZM34.6666 28.367C33.6622 28.367 32.9134 28.7618 32.42 29.5512C31.9266 30.3231 31.6799 31.5249 31.6799 33.1564C31.6799 34.788 31.9178 35.9721 32.3936 36.709C32.8693 37.4282 33.5918 37.7879 34.5609 37.7879C35.2657 37.7879 35.8384 37.6125 36.2789 37.2616C36.7194 36.9107 37.0542 36.3756 37.2833 35.6564C37.5124 34.9371 37.6269 34.0511 37.6269 32.9985C37.6269 31.4021 37.3802 30.2354 36.8868 29.4986C36.3934 28.7442 35.6534 28.367 34.6666 28.367Z" fill="#151942"></path><path d="M48.3618 40.4194C47.3398 40.4194 46.4323 40.1563 45.6394 39.63C44.8641 39.0861 44.2473 38.2879 43.7892 37.2353C43.3487 36.1827 43.1284 34.902 43.1284 33.3932C43.1284 30.7968 43.7892 28.8758 45.1108 27.6302C46.4323 26.3671 48.2913 25.7355 50.6877 25.7355C51.0753 25.7355 51.463 25.7531 51.8506 25.7881C52.2383 25.8232 52.6436 25.8846 53.0665 25.9723L52.3793 26.3934V22.0514L52.6436 22.4198L50.4762 21.7093V19.8409L56.0796 19.6304V38.051L55.6303 37.5247L57.8505 38.2089V40.0773L53.1986 40.2878L52.7229 38.0247L53.0929 38.1563C52.3176 38.9107 51.5423 39.4808 50.767 39.8668C50.0093 40.2352 49.2076 40.4194 48.3618 40.4194ZM49.789 37.7089C50.2472 37.7089 50.7317 37.5861 51.2427 37.3405C51.7537 37.0774 52.2823 36.7002 52.8286 36.209L52.3793 37.3142V27.867L52.8286 28.7091C52.0004 28.4811 51.2515 28.367 50.582 28.367C49.3309 28.367 48.4146 28.7881 47.8331 29.6302C47.2693 30.4547 46.9874 31.595 46.9874 33.0511C46.9874 33.9985 47.1019 34.823 47.331 35.5248C47.56 36.2265 47.8772 36.7704 48.2825 37.1563C48.7054 37.5247 49.2076 37.7089 49.789 37.7089Z" fill="#151942"></path><path d="M64.3925 40.4194C63.2119 40.4194 62.2252 40.0422 61.4323 39.2879C60.6393 38.5159 60.2429 37.3581 60.2429 35.8142V28.1302L60.5865 28.6565L58.4984 28.0249V26.1302L63.9432 25.946V35.209C63.9432 36.0335 64.1282 36.6476 64.4983 37.0511C64.8683 37.437 65.3617 37.63 65.9784 37.63C66.4541 37.63 66.9739 37.5072 67.5378 37.2616C68.1193 36.9984 68.692 36.5949 69.2558 36.0511L68.9915 36.709V28.0512L69.3351 28.6565L67.2471 28.0249V26.1302L72.6918 25.946V38.1563L72.2425 37.5247L74.4627 38.2089V40.0773L69.8109 40.2878L69.3087 37.7089L69.8373 37.8932C68.9563 38.7352 68.04 39.3668 67.0885 39.7878C66.1546 40.2089 65.2559 40.4194 64.3925 40.4194Z" fill="#151942"></path><path d="M82.1239 40.4194C80.9081 40.4194 79.8068 40.1387 78.8201 39.5773C77.851 38.9984 77.0845 38.1738 76.5206 37.1037C75.9567 36.0335 75.6748 34.7353 75.6748 33.209C75.6748 31.8231 75.8774 30.6565 76.2827 29.7091C76.688 28.7618 77.2342 27.9986 77.9214 27.4197C78.6086 26.8232 79.3751 26.3934 80.2209 26.1302C81.0667 25.8671 81.9389 25.7355 82.8376 25.7355C83.6834 25.7355 84.538 25.8408 85.4014 26.0513C86.2648 26.2618 86.9696 26.4987 87.5159 26.7618L87.4101 30.6301H85.0313L84.6349 28.4723L84.9256 28.6828C84.6613 28.5776 84.3353 28.4986 83.9477 28.446C83.5777 28.3933 83.234 28.367 82.9169 28.367C82.1592 28.367 81.5248 28.56 81.0139 28.946C80.5205 29.3144 80.1504 29.8495 79.9038 30.5512C79.6571 31.2354 79.5337 32.0512 79.5337 32.9985C79.5337 34.016 79.6747 34.8757 79.9566 35.5774C80.2385 36.2791 80.635 36.8142 81.146 37.1826C81.6746 37.5335 82.2825 37.7089 82.9697 37.7089C83.516 37.7089 84.1151 37.5949 84.767 37.3668C85.419 37.1388 86.0974 36.7967 86.8022 36.3405L88.0445 38.2089C87.0577 38.9633 86.071 39.5247 85.0842 39.8931C84.0975 40.244 83.1107 40.4194 82.1239 40.4194Z" fill="#151942"></path><path d="M94.1475 40.4194C92.9317 40.4194 92.0066 40.0598 91.3723 39.3405C90.7556 38.6037 90.4472 37.516 90.4472 36.0774V28.0249L90.923 28.4986H88.3856V26.525L90.9758 25.9197L90.4472 26.5513V22.9724L94.174 22.3145V26.5513L93.7775 26.0513H97.795L97.7421 28.4986H93.7775L94.174 28.0249V35.5774C94.174 36.3318 94.2973 36.8756 94.544 37.209C94.7907 37.5423 95.1607 37.7089 95.6541 37.7089C95.936 37.7089 96.2444 37.6651 96.5792 37.5774C96.9316 37.4721 97.3104 37.3405 97.7157 37.1826L98.4029 39.2089C96.9228 40.0159 95.5043 40.4194 94.1475 40.4194Z" fill="#151942"></path><path d="M10.9953 59.0785H13.2419V64.6573H0V62.7626L2.37878 62.0785L1.95589 62.8153V48.0787L2.37878 48.7893L0 48.1577V46.263L7.84998 46.1314V48.0261L5.33905 48.7893L5.73551 48.0787V62.5258L5.15403 61.9469H10.916L10.3874 62.5521L10.9953 59.0785Z" fill="#151942"></path><path d="M20.9005 64.9731C19.6141 64.9731 18.4864 64.71 17.5173 64.1837C16.5482 63.6398 15.7905 62.8416 15.2442 61.789C14.7156 60.7188 14.4513 59.4206 14.4513 57.8943C14.4513 56.3154 14.7332 54.9646 15.2971 53.8418C15.8786 52.7015 16.6891 51.8243 17.7287 51.2103C18.7684 50.5962 19.993 50.2892 21.4026 50.2892C22.7771 50.2892 23.896 50.5611 24.7594 51.105C25.6228 51.6488 26.2571 52.3944 26.6624 53.3418C27.0677 54.2716 27.2703 55.3242 27.2703 56.4996C27.2703 56.7979 27.2527 57.0961 27.2174 57.3943C27.1998 57.6926 27.1646 58.0084 27.1117 58.3417H17.438V56.1575H23.94L23.4643 56.4996C23.4819 55.7979 23.4114 55.1839 23.2528 54.6576C23.1118 54.1137 22.8652 53.6927 22.5127 53.3944C22.1779 53.0962 21.711 52.9471 21.1119 52.9471C20.4247 52.9471 19.8696 53.1488 19.4468 53.5523C19.0239 53.9383 18.7155 54.4646 18.5217 55.1312C18.3455 55.7979 18.2574 56.5435 18.2574 57.368C18.2574 58.2978 18.3719 59.1311 18.601 59.868C18.83 60.6048 19.2001 61.1837 19.7111 61.6048C20.2397 62.0258 20.9269 62.2363 21.7727 62.2363C22.3718 62.2363 23.0149 62.1311 23.7021 61.9206C24.407 61.6925 25.1382 61.3592 25.8959 60.9206L27.1381 62.8942C26.1162 63.596 25.0677 64.1223 23.9929 64.4731C22.9356 64.8065 21.9048 64.9731 20.9005 64.9731Z" fill="#151942"></path><path d="M40.8777 62.789L40.3755 62.0521L42.6486 62.7626V64.631L38.0231 64.8679L37.521 62.3416L37.7853 62.4205C37.0804 63.2802 36.3139 63.9205 35.4858 64.3416C34.6576 64.7626 33.803 64.9731 32.922 64.9731C31.7943 64.9731 30.8604 64.6135 30.1203 63.8942C29.3802 63.1749 29.0102 62.1399 29.0102 60.789C29.0102 59.789 29.2216 58.9996 29.6445 58.4206C30.0851 57.8242 30.7194 57.3943 31.5476 57.1312C32.3757 56.868 33.3801 56.7365 34.5607 56.7365H37.4417L37.1774 57.0259V55.2891C37.1774 54.4646 36.9747 53.8769 36.5694 53.526C36.1818 53.1751 35.6091 52.9997 34.8514 52.9997C34.4814 52.9997 34.0849 53.0348 33.662 53.105C33.2391 53.1751 32.781 53.2804 32.2876 53.4207L32.6577 53.026L32.3141 55.1575H30.0146L29.8031 51.3155C31.0013 50.9646 32.0938 50.7103 33.0806 50.5524C34.0849 50.3769 35.0012 50.2892 35.8294 50.2892C37.4681 50.2892 38.7192 50.6401 39.5826 51.3418C40.446 52.0436 40.8777 53.1313 40.8777 54.6049V62.789ZM32.737 60.4206C32.737 61.0697 32.8867 61.5521 33.1863 61.8679C33.5035 62.1662 33.8999 62.3153 34.3757 62.3153C34.8162 62.3153 35.3008 62.1837 35.8294 61.9206C36.358 61.6399 36.8602 61.2627 37.3359 60.789L37.1774 61.4206V58.4206L37.4417 58.6838H35.1686C34.2523 58.6838 33.618 58.8241 33.2656 59.1048C32.9132 59.3855 32.737 59.8241 32.737 60.4206Z" fill="#151942"></path><path d="M49.0329 64.9731C48.0109 64.9731 47.1034 64.71 46.3105 64.1837C45.5352 63.6398 44.9184 62.8416 44.4603 61.789C44.0198 60.7364 43.7995 59.4557 43.7995 57.947C43.7995 55.3505 44.4603 53.4295 45.7819 52.1839C47.1034 50.9208 48.9624 50.2892 51.3588 50.2892C51.7464 50.2892 52.1341 50.3068 52.5217 50.3419C52.9094 50.3769 53.3147 50.4383 53.7376 50.5261L53.0504 50.9471V46.6051L53.3147 46.9735L51.1473 46.263V44.3946L56.7507 44.1841V62.6048L56.3014 62.0785L58.5216 62.7626V64.631L53.8697 64.8416L53.394 62.5784L53.764 62.71C52.9887 63.4644 52.2134 64.0346 51.4381 64.4205C50.6804 64.7889 49.8786 64.9731 49.0329 64.9731ZM50.4601 62.2627C50.9183 62.2627 51.4028 62.1399 51.9138 61.8942C52.4248 61.6311 52.9534 61.2539 53.4997 60.7627L53.0504 61.8679V52.4208L53.4997 53.2628C52.6715 53.0348 51.9226 52.9207 51.2531 52.9207C50.002 52.9207 49.0857 53.3418 48.5042 54.1839C47.9404 55.0084 47.6585 56.1487 47.6585 57.6049C47.6585 58.5522 47.773 59.3768 48.0021 60.0785C48.2311 60.7802 48.5483 61.3241 48.9536 61.71C49.3765 62.0785 49.8786 62.2627 50.4601 62.2627Z" fill="#151942"></path><path d="M66.1737 64.9731C64.8874 64.9731 63.7597 64.71 62.7906 64.1837C61.8214 63.6398 61.0637 62.8416 60.5175 61.789C59.9889 60.7188 59.7246 59.4206 59.7246 57.8943C59.7246 56.3154 60.0065 54.9646 60.5704 53.8418C61.1518 52.7015 61.9624 51.8243 63.002 51.2103C64.0416 50.5962 65.2663 50.2892 66.6759 50.2892C68.0503 50.2892 69.1692 50.5611 70.0326 51.105C70.896 51.6488 71.5304 52.3944 71.9357 53.3418C72.3409 54.2716 72.5436 55.3242 72.5436 56.4996C72.5436 56.7979 72.5259 57.0961 72.4907 57.3943C72.4731 57.6926 72.4378 58.0084 72.385 58.3417H62.7113V56.1575H69.2133L68.7375 56.4996C68.7551 55.7979 68.6847 55.1839 68.5261 54.6576C68.3851 54.1137 68.1384 53.6927 67.786 53.3944C67.4512 53.0962 66.9843 52.9471 66.3852 52.9471C65.698 52.9471 65.1429 53.1488 64.72 53.5523C64.2971 53.9383 63.9888 54.4646 63.7949 55.1312C63.6187 55.7979 63.5306 56.5435 63.5306 57.368C63.5306 58.2978 63.6452 59.1311 63.8742 59.868C64.1033 60.6048 64.4733 61.1837 64.9843 61.6048C65.5129 62.0258 66.2001 62.2363 67.0459 62.2363C67.645 62.2363 68.2882 62.1311 68.9754 61.9206C69.6802 61.6925 70.4115 61.3592 71.1692 60.9206L72.4114 62.8942C71.3894 63.596 70.341 64.1223 69.2661 64.4731C68.2089 64.8065 67.1781 64.9731 66.1737 64.9731Z" fill="#151942"></path><path d="M74.1777 64.6573V62.7626L76.3186 62.1574L75.9486 62.71V52.605L76.3715 53.2365L74.1777 52.5786V50.6839L78.8296 50.4734L79.3053 52.9734L78.8296 52.8681C79.6225 52.0436 80.4066 51.412 81.1819 50.9734C81.9572 50.5173 82.7854 50.2892 83.6665 50.2892C84.2303 50.2892 84.8294 50.3769 85.4637 50.5524L85.2259 55.4207H83.085L82.6885 52.5786L83.0321 53.2892C82.9264 53.2541 82.8118 53.2278 82.6885 53.2102C82.5828 53.1927 82.4771 53.1839 82.3713 53.1839C81.8251 53.1839 81.2789 53.3506 80.7326 53.6839C80.204 54.0172 79.7459 54.447 79.3582 54.9733L79.6489 53.9734V62.71L79.2261 62.1574L81.8427 62.7626V64.6573H74.1777Z" fill="#151942"></path><path d="M90.3537 54.1576C90.3537 54.5611 90.5299 54.8856 90.8823 55.1312C91.2347 55.3768 91.684 55.5874 92.2303 55.7628C92.7941 55.9382 93.3844 56.1224 94.0011 56.3154C94.6355 56.5084 95.2258 56.7628 95.772 57.0786C96.3359 57.3768 96.794 57.7803 97.1464 58.2891C97.4988 58.7978 97.675 59.4557 97.675 60.2627C97.675 61.2978 97.3931 62.1662 96.8292 62.8679C96.2654 63.5697 95.4989 64.096 94.5298 64.4468C93.5606 64.7977 92.4681 64.9731 91.2523 64.9731C90.5475 64.9731 89.7986 64.9117 89.0057 64.7889C88.2304 64.6661 87.4286 64.4995 86.6005 64.2889L86.7591 60.3153H89.085L89.3757 62.6311L89.0586 62.1837C89.411 62.289 89.7986 62.3767 90.2215 62.4469C90.6444 62.4995 91.0144 62.5258 91.3316 62.5258C91.7897 62.5258 92.2126 62.4644 92.6003 62.3416C93.0056 62.2188 93.3316 62.0434 93.5782 61.8153C93.8426 61.5697 93.9747 61.2627 93.9747 60.8943C93.9747 60.4732 93.7985 60.1399 93.4461 59.8943C93.0937 59.6487 92.6355 59.4382 92.0717 59.2627C91.5254 59.0873 90.944 58.9031 90.3272 58.7101C89.7281 58.5171 89.1467 58.2627 88.5828 57.947C88.0366 57.6312 87.5872 57.2101 87.2348 56.6838C86.8824 56.1575 86.7062 55.4733 86.7062 54.6312C86.7062 53.6137 86.9617 52.7892 87.4727 52.1576C87.9837 51.5085 88.6621 51.0348 89.5079 50.7366C90.3713 50.4383 91.314 50.2892 92.336 50.2892C93.0584 50.2892 93.8249 50.3594 94.6355 50.4997C95.446 50.6225 96.2742 50.8068 97.12 51.0524L96.9878 54.5786H94.6355L94.2126 52.4997L94.7148 53.0523C93.8866 52.8243 93.1553 52.7102 92.521 52.7102C91.869 52.7102 91.3404 52.8418 90.9352 53.105C90.5475 53.3506 90.3537 53.7014 90.3537 54.1576Z" fill="#151942"></path><path d="M8.65219 74.657V83.7625H6.98206L3.00321 78.0315H2.93623V83.7625H1.00262V74.657H2.69955L6.64714 80.3835H6.72752V74.657H8.65219Z" fill="#476280"></path><path d="M12.2618 83.7625V74.657H18.4243V76.2442H14.1954V78.4139H18.1072V80.0011H14.1954V82.1752H18.4422V83.7625H12.2618Z" fill="#476280"></path><path d="M21.6253 76.2442V74.657H29.1364V76.2442H26.3365V83.7625H24.4252V76.2442H21.6253Z" fill="#476280"></path><path d="M34.444 83.7625L31.8272 74.657H33.9394L35.4533 80.9837H35.5292L37.1993 74.657H39.0079L40.6735 80.997H40.7539L42.2678 74.657H44.38L41.7632 83.7625H39.8787L38.1371 77.8092H38.0656L36.3285 83.7625H34.444Z" fill="#476280"></path><path d="M55.3154 79.2097C55.3154 80.2027 55.1264 81.0474 54.7483 81.744C54.3732 82.4405 53.8611 82.9726 53.2121 83.3401C52.5661 83.7047 51.8397 83.887 51.0329 83.887C50.2201 83.887 49.4908 83.7032 48.8447 83.3357C48.1987 82.9681 47.6882 82.4361 47.313 81.7395C46.9379 81.043 46.7504 80.1997 46.7504 79.2097C46.7504 78.2168 46.9379 77.372 47.313 76.6755C47.6882 75.9789 48.1987 75.4484 48.8447 75.0838C49.4908 74.7162 50.2201 74.5325 51.0329 74.5325C51.8397 74.5325 52.5661 74.7162 53.2121 75.0838C53.8611 75.4484 54.3732 75.9789 54.7483 76.6755C55.1264 77.372 55.3154 78.2168 55.3154 79.2097ZM53.355 79.2097C53.355 78.5665 53.2582 78.0241 53.0647 77.5825C52.8742 77.1408 52.6048 76.8059 52.2565 76.5777C51.9081 76.3494 51.5003 76.2353 51.0329 76.2353C50.5655 76.2353 50.1576 76.3494 49.8093 76.5777C49.461 76.8059 49.1901 77.1408 48.9966 77.5825C48.806 78.0241 48.7108 78.5665 48.7108 79.2097C48.7108 79.8529 48.806 80.3953 48.9966 80.837C49.1901 81.2786 49.461 81.6135 49.8093 81.8418C50.1576 82.07 50.5655 82.1841 51.0329 82.1841C51.5003 82.1841 51.9081 82.07 52.2565 81.8418C52.6048 81.6135 52.8742 81.2786 53.0647 80.837C53.2582 80.3953 53.355 79.8529 53.355 79.2097Z" fill="#476280"></path><path d="M58.7598 83.7625V74.657H62.368C63.0586 74.657 63.6481 74.78 64.1363 75.026C64.6275 75.269 65.0012 75.6143 65.2572 76.0619C65.5162 76.5065 65.6457 77.0297 65.6457 77.6314C65.6457 78.236 65.5147 78.7562 65.2527 79.1919C64.9907 79.6247 64.6112 79.9567 64.114 80.1878C63.6198 80.419 63.0214 80.5346 62.3188 80.5346H59.9029V78.9874H62.0062C62.3754 78.9874 62.682 78.937 62.9262 78.8362C63.1703 78.7355 63.3519 78.5843 63.471 78.3828C63.593 78.1812 63.654 77.9307 63.654 77.6314C63.654 77.329 63.593 77.0741 63.471 76.8666C63.3519 76.6592 63.1688 76.5021 62.9217 76.3954C62.6776 76.2857 62.3694 76.2309 61.9973 76.2309H60.6934V83.7625H58.7598ZM63.6987 79.6188L65.9717 83.7625H63.8371L61.6133 79.6188H63.6987Z" fill="#476280"></path><path d="M69.0242 83.7625V74.657H70.9578V78.6717H71.0784L74.3695 74.657H76.6871L73.2933 78.734L76.7273 83.7625H74.4142L71.909 80.0189L70.9578 81.1749V83.7625H69.0242Z" fill="#476280"></path><path d="M84.6194 83.6913L83.5834 82.6687L86.303 79.9611H79.9306V78.4583H86.303L83.5834 75.7551L84.6194 74.7281L89.1208 79.2097L84.6194 83.6913Z" fill="#476280"></path><path d="M110.313 0C121.044 4.60264 128 15.1557 128 26.8316V32.2424L110.313 24.656V0Z" fill="#E9292A"></path><path d="M104.833 3.96851C115.705 8.56696 122.769 19.2251 122.769 31.0293V36.2109L104.833 28.6245V3.96851Z" fill="#F47A20" fill-opacity="0.75"></path></svg>